<svg width="24" height="24" viewBox="0 0 24 24" fill="none" xmlns="http://www.w3.org/2000/svg">
<path d="M12 15C10.4087 15 8.88258 14.3679 7.75736 13.2426C6.63214 12.1174 6 10.5913 6 9C6 7.4087 6.63214 5.88258 7.75736 4.75736C8.88258 3.63214 10.4087 3 12 3C13.5913 3 15.1174 3.63214 16.2426 4.75736C17.3679 5.88258 18 7.4087 18 9C18 10.5913 17.3679 12.1174 16.2426 13.2426C15.1174 14.3679 13.5913 15 12 15ZM12 15L15.4 20.89L16.998 17.657L20.596 17.889L17.196 12M6.80234 12L3.40234 17.89L7.00034 17.657L8.59834 20.889L11.9983 15" stroke="#1C1C1C" stroke-width="2" stroke-linecap="round" stroke-linejoin="round"/>
</svg>
