<svg width="24" height="24" viewBox="0 0 24 24" fill="none" xmlns="http://www.w3.org/2000/svg">
<g id="Property 1=masterplan">
<path id="Vector" d="M18.2897 20.7441H15.623V22.2437H18.2897C18.4783 22.2437 18.6592 22.1647 18.7925 22.0241C18.9259 21.8835 19.0008 21.6928 19.0008 21.4939C19.0008 21.2951 18.9259 21.1044 18.7925 20.9637C18.6592 20.8231 18.4783 20.7441 18.2897 20.7441Z" fill="#161B28"/>
<path id="Subtract" fill-rule="evenodd" clip-rule="evenodd" d="M18.2889 2H5.77911C5.04208 2.00012 4.33527 2.30889 3.81411 2.85839C3.29295 3.40789 3.00012 4.15313 3 4.93024V19.3139C3.00012 20.091 3.29295 20.8362 3.81411 21.3857C4.33527 21.9352 5.04208 22.244 5.77911 22.2441H11.1778V20.7446H6.02222C5.69218 20.7446 5.37565 20.6063 5.14227 20.3603C4.90889 20.1142 4.77778 19.7804 4.77778 19.4324C4.77778 19.0844 4.90889 18.7507 5.14227 18.5046C5.37565 18.2586 5.69218 18.1203 6.02222 18.1203H18.2889C18.4775 18.1203 18.6584 18.0413 18.7917 17.9007C18.9251 17.7601 19 17.5694 19 17.3705V2.74978C19 2.55093 18.9251 2.36022 18.7917 2.21961C18.6584 2.07899 18.4775 2 18.2889 2ZM14.9897 13.6822L12.7725 10.4647L13.4593 9.93861C13.7234 9.73628 13.7819 9.34652 13.5901 9.06804C13.3982 8.78956 13.0285 8.72783 12.7644 8.93016L10.3129 10.8081C10.0488 11.0105 9.99023 11.4002 10.1821 11.6787C10.374 11.9572 10.7437 12.0189 11.0078 11.8166L11.6964 11.2891L13.9135 14.5066C14.0924 14.7663 14.437 14.8238 14.6833 14.6352L14.8677 14.4939C15.114 14.3053 15.1686 13.9419 14.9897 13.6822ZM13.0307 7.95576L9.35347 10.7727C8.9573 11.0762 8.4028 10.9836 8.11497 10.5659L8.11471 10.5655C7.82687 10.1478 7.9147 9.56316 8.31087 9.25968L11.9881 6.44271C12.3843 6.13922 12.9388 6.23182 13.2266 6.64953L13.2269 6.64991C13.5147 7.06763 13.4269 7.65228 13.0307 7.95576ZM11.0276 6.40736L8.57614 8.28534C8.31203 8.48766 7.94236 8.42593 7.75047 8.14745C7.55859 7.86898 7.61713 7.47921 7.88125 7.27689L10.3327 5.39891C10.5969 5.19658 10.9665 5.25831 11.1584 5.53679C11.3503 5.81527 11.2918 6.20503 11.0276 6.40736Z" fill="#161B28"/>
<path id="Vector_2" d="M14.8515 23.0004L13.4648 22.0257L12.0781 23.0004V19.4268H14.8515V23.0004Z" fill="#161B28"/>
</g>
</svg>
