<svg width="24" height="24" viewBox="0 0 24 24" fill="none" xmlns="http://www.w3.org/2000/svg">
<path fill-rule="evenodd" clip-rule="evenodd" d="M8 2C4.68629 2 2 4.68629 2 8V16C2 19.3137 4.68629 22 8 22H16C19.3137 22 22 19.3137 22 16V8C22 4.68629 19.3137 2 16 2H8ZM16.203 9.29289C16.5936 9.68342 16.5936 10.3166 16.203 10.7071L11.6173 15.2929C11.4783 15.4318 11.3087 15.5213 11.1302 15.5614C10.7426 15.8135 10.2187 15.7695 9.87868 15.4295L7.29289 12.8437C6.90237 12.4531 6.90237 11.82 7.29289 11.4295C7.68342 11.0389 8.31658 11.0389 8.70711 11.4295L10.6797 13.402L14.7888 9.29289C15.1794 8.90237 15.8125 8.90237 16.203 9.29289Z" fill="#1C1C1C"/>
</svg>
