<svg width="24" height="24" viewBox="0 0 24 24" fill="none" xmlns="http://www.w3.org/2000/svg">
<path d="M15 11.0006V11.0106M5.17307 8.37863C4.73447 8.04153 4.39762 7.58973 4.19973 7.07316C4.00185 6.55658 3.95065 5.99536 4.05179 5.45151C4.15293 4.90765 4.40247 4.40235 4.77283 3.99146C5.14319 3.58056 5.61994 3.28006 6.15041 3.12318C6.68087 2.96629 7.24438 2.95913 7.77866 3.10249C8.31294 3.24584 8.79718 3.53413 9.17786 3.93548C9.55854 4.33684 9.82084 4.83563 9.93577 5.37674C10.0507 5.91785 10.0138 6.48019 9.82907 7.00163M16 4.00061V7.80361C17.2376 8.51973 18.1799 9.65306 18.658 11.0006H19.999C20.2642 11.0006 20.5186 11.106 20.7061 11.2935C20.8937 11.481 20.999 11.7354 20.999 12.0006V14.0006C20.999 14.2658 20.8937 14.5202 20.7061 14.7077C20.5186 14.8953 20.2642 15.0006 19.999 15.0006H18.657C18.321 15.9506 17.75 16.8006 16.999 17.4736V19.5006C16.999 19.8984 16.841 20.28 16.5597 20.5613C16.2784 20.8426 15.8968 21.0006 15.499 21.0006C15.1012 21.0006 14.7197 20.8426 14.4384 20.5613C14.157 20.28 13.999 19.8984 13.999 19.5006V18.9176C13.6686 18.973 13.3341 19.0007 12.999 19.0006H8.99901C8.66396 19.0007 8.32947 18.973 7.99901 18.9176V19.5006C7.99901 19.8984 7.84098 20.28 7.55967 20.5613C7.27837 20.8426 6.89684 21.0006 6.49901 21.0006C6.10119 21.0006 5.71966 20.8426 5.43835 20.5613C5.15705 20.28 4.99901 19.8984 4.99901 19.5006V17.4736C4.09298 16.6636 3.45429 15.5975 3.1675 14.4165C2.8807 13.2355 2.95933 11.9952 3.39296 10.8598C3.82659 9.72448 4.59478 8.74758 5.59585 8.05844C6.59692 7.3693 7.78367 7.00041 8.99901 7.00061H11.499L15.999 4.00061H16Z" stroke="#1C1C1C" stroke-width="2" stroke-linecap="round" stroke-linejoin="round"/>
</svg>
