<svg width="40" height="40" viewBox="0 0 40 40" fill="none" xmlns="http://www.w3.org/2000/svg">
<path d="M33.9924 19.1606C35.7044 19.1606 37.0922 17.7728 37.0922 16.0608C37.0922 14.3488 35.7044 12.9609 33.9924 12.9609C32.2804 12.9609 30.8926 14.3488 30.8926 16.0608C30.8926 17.7728 32.2804 19.1606 33.9924 19.1606Z" fill="white"/>
<path d="M33.9924 29.6528C35.7044 29.6528 37.0922 28.2649 37.0922 26.553C37.0922 24.841 35.7044 23.4531 33.9924 23.4531C32.2804 23.4531 30.8926 24.841 30.8926 26.553C30.8926 28.2649 32.2804 29.6528 33.9924 29.6528Z" fill="white"/>
<path fill-rule="evenodd" clip-rule="evenodd" d="M3.00195 6V21.5442H3C3 28.9481 9.00256 34.9506 16.4064 34.9506C23.8103 34.9506 29.8128 28.9481 29.8128 21.5442C29.8128 14.1406 23.8108 8.13826 16.4073 8.13778C16.4076 8.13778 16.4079 8.13778 16.4082 8.13778H16.4064C16.4067 8.13778 16.407 8.13778 16.4073 8.13778C13.346 8.13798 10.525 9.16331 8.26842 10.8898L3.00195 6ZM3.00538 21.3428C3.00311 21.41 3.00195 21.4771 3.00195 21.5442H11.5467C11.5467 24.2255 13.7269 26.4057 16.4082 26.4057C19.0895 26.4057 21.2697 24.2255 21.2697 21.5442C21.2697 18.8629 19.0877 16.6827 16.4082 16.6827C15.0691 16.6827 13.8547 17.2272 12.9739 18.1074L12.9748 18.1082C12.0939 18.9891 11.5489 20.204 11.5489 21.5438H3.00391C3.00391 21.4767 3.0044 21.4097 3.00538 21.3428Z" fill="#FFBF00"/>
</svg>
