<svg width="157" height="40" viewBox="0 0 157 40" fill="none" xmlns="http://www.w3.org/2000/svg">
<path d="M33.9924 19.1606C35.7044 19.1606 37.0922 17.7728 37.0922 16.0608C37.0922 14.3488 35.7044 12.9609 33.9924 12.9609C32.2804 12.9609 30.8926 14.3488 30.8926 16.0608C30.8926 17.7728 32.2804 19.1606 33.9924 19.1606Z" fill="white"/>
<path d="M33.9924 29.6528C35.7044 29.6528 37.0922 28.2649 37.0922 26.553C37.0922 24.841 35.7044 23.4531 33.9924 23.4531C32.2804 23.4531 30.8926 24.841 30.8926 26.553C30.8926 28.2649 32.2804 29.6528 33.9924 29.6528Z" fill="white"/>
<path fill-rule="evenodd" clip-rule="evenodd" d="M3.00195 6V21.5442H3C3 28.9481 9.00256 34.9506 16.4064 34.9506C23.8103 34.9506 29.8128 28.9481 29.8128 21.5442C29.8128 14.1406 23.8108 8.13826 16.4073 8.13778C16.4076 8.13778 16.4079 8.13778 16.4082 8.13778H16.4064C16.4067 8.13778 16.407 8.13778 16.4073 8.13778C13.346 8.13798 10.525 9.16331 8.26842 10.8898L3.00195 6ZM3.00538 21.3428C3.00311 21.41 3.00195 21.4771 3.00195 21.5442H11.5467C11.5467 24.2255 13.7269 26.4057 16.4082 26.4057C19.0895 26.4057 21.2697 24.2255 21.2697 21.5442C21.2697 18.8629 19.0877 16.6827 16.4082 16.6827C15.0691 16.6827 13.8547 17.2272 12.9739 18.1074L12.9748 18.1082C12.0939 18.9891 11.5489 20.204 11.5489 21.5438H3.00391C3.00391 21.4767 3.0044 21.4097 3.00538 21.3428Z" fill="#FFBF00"/>
<path d="M66.069 20.794H64.169V27.976H60.958V11.75H64.169V17.678H66.069V20.794ZM49.482 12.13H58.925V27.216H49.482V12.13ZM52.693 24.233H55.714V15.113H52.693V24.233ZM75.1114 17.925C74.1487 19.217 72.9897 20.2367 71.6344 20.984C70.2917 21.7187 68.8604 22.0923 67.3404 22.105V19.065C68.417 19.065 69.4367 18.7547 70.3994 18.134C71.3747 17.5007 72.198 16.6267 72.8694 15.512C73.5407 14.3847 73.9714 13.1117 74.1614 11.693L77.4294 12.206C77.2774 13.3207 76.9797 14.391 76.5364 15.417L83.4524 19.578L81.7614 22.181L75.1114 17.925ZM67.0174 24.404H83.4334V27.406H67.0174V24.404ZM100.874 11.75V27.976H97.6627V20.756H95.3447V17.754H97.6627V11.75H100.874ZM92.0387 24.271C92.8114 24.271 93.5777 24.2013 94.3377 24.062C95.1104 23.9227 95.7437 23.7327 96.2377 23.492V26.437C95.7564 26.6777 95.1357 26.8677 94.3757 27.007C93.6157 27.1463 92.8367 27.216 92.0387 27.216H85.7497V12.13H95.0787V15.075H88.9607V18.153H94.3187V21.079H88.9607V24.271H92.0387ZM118.77 17.716H104.026V15.493H106.515V13.973H104.197V11.75H118.599V13.973H116.281V15.493H118.77V17.716ZM109.688 15.493H113.108V13.973H109.688V15.493ZM119.606 18.343V20.661H103.19V18.343H119.606ZM107.294 26H118.827V27.976H104.159V23.796H115.521V23.245H104.121V21.288H118.656V25.449H107.294V26ZM133.075 23.701H130.111V11.826H133.075V15.588H134.424V11.75H137.426V23.986H134.424V18.476H133.075V23.701ZM129.351 21.611C128.933 21.7883 128.37 21.9277 127.66 22.029C126.951 22.1303 126.21 22.181 125.437 22.181H121.561V15.816H125.836V14.543H121.561V11.94H128.781V18.229H124.506V19.578H125.608C126.356 19.578 127.059 19.5337 127.717 19.445C128.389 19.3437 128.933 19.2107 129.351 19.046V21.611ZM137.616 25.088V27.976H122.492V22.979H125.741V25.088H137.616ZM155.038 11.75V27.976H151.827V11.75H155.038ZM146.545 12.13H149.699V27.216H140.085V12.13H143.239V16.899H146.545V12.13ZM146.545 24.271V19.825H143.239V24.271H146.545Z" fill="white"/>
</svg>
