<svg width="24" height="24" viewBox="0 0 24 24" fill="none" xmlns="http://www.w3.org/2000/svg">
<path d="M11.9994 1.00035C12.1624 1.00097 12.3228 1.04171 12.4663 1.11897C12.6098 1.19623 12.7321 1.30763 12.8224 1.44335L12.8894 1.55935L15.7414 7.34035L22.1214 8.26535C22.8624 8.37335 23.2014 9.20535 22.8244 9.79135L22.7544 9.88635L22.6764 9.97235L18.0524 14.4713L19.1424 20.8263C19.1708 20.9921 19.157 21.1624 19.1022 21.3214C19.0474 21.4804 18.9535 21.623 18.829 21.7362C18.7045 21.8493 18.5536 21.9292 18.39 21.9685C18.2265 22.0079 18.0557 22.0054 17.8934 21.9613L17.7924 21.9263L17.6914 21.8803L11.9984 18.8803L6.29242 21.8803C6.18742 21.9353 6.08042 21.9703 5.97242 21.9863L5.86642 21.9963C5.72685 22.0015 5.58776 21.9774 5.45804 21.9256C5.32833 21.8738 5.21085 21.7956 5.11314 21.6958C5.01542 21.596 4.93962 21.4769 4.8906 21.3461C4.84157 21.2153 4.82039 21.0758 4.82842 20.9363L4.84142 20.8263L5.93142 14.4713L1.30842 9.97135C1.18887 9.85491 1.10034 9.71043 1.05086 9.55105C1.00139 9.39166 0.992543 9.22244 1.02514 9.05877C1.05773 8.8951 1.13073 8.74218 1.23749 8.61391C1.34425 8.48565 1.48139 8.38611 1.63642 8.32435L1.74942 8.28835L1.86342 8.26535L8.24242 7.34035L11.0954 1.56035C11.175 1.38896 11.303 1.24461 11.4636 1.1451C11.6243 1.04559 11.8105 0.99527 11.9994 1.00035ZM11.9994 4.27435V16.7503C12.08 16.7504 12.1602 16.7601 12.2384 16.7793L12.3534 16.8154L12.4654 16.8653L16.8284 19.1643L15.9924 14.2914C15.9512 14.0505 15.9996 13.8029 16.1284 13.5954L16.1984 13.4964L16.2804 13.4064L19.8264 9.95335L14.9354 9.24535C14.6937 9.21026 14.4731 9.08789 14.3154 8.90135L14.2424 8.80435L14.1824 8.69835L11.9994 4.27435Z" fill="#1C1C1C"/>
</svg>
